<svg width="85.201" height="88.403" viewBox="0 0 85.201 88.403" xmlns="http://www.w3.org/2000/svg"><g id="svgGroup" stroke-linecap="round" fill-rule="evenodd" font-size="9pt" stroke="#000" stroke-width="0.25mm" fill="none" style="stroke:#000;stroke-width:0.25mm;fill:none"><path d="M 48.105 55.013 A 1204.252 1204.252 0 0 0 46.1 57.9 Q 41.6 64.4 36.2 70.7 A 96.332 96.332 0 0 1 28.983 78.28 A 81.01 81.01 0 0 1 25.1 81.7 Q 21.365 84.78 17.93 85.842 A 11.92 11.92 0 0 1 14.4 86.4 Q 10.516 86.4 7.829 84.861 A 9.836 9.836 0 0 1 7.4 84.6 Q 4.6 82.8 3 79.9 A 21.242 21.242 0 0 1 1.106 75.156 A 25.132 25.132 0 0 1 0.7 73.4 Q 0 69.8 0 66.2 Q 0 62.328 1.139 57.317 A 68.991 68.991 0 0 1 1.9 54.3 A 85.889 85.889 0 0 1 5.199 44.68 A 102.737 102.737 0 0 1 7.2 40.1 Q 10.6 32.8 15.1 25.6 Q 19.6 18.4 24.8 12.7 A 56.115 56.115 0 0 1 30.808 6.984 A 45.29 45.29 0 0 1 35.7 3.5 A 24.816 24.816 0 0 1 41.245 0.931 A 19.78 19.78 0 0 1 47.2 0 A 14.072 14.072 0 0 1 49.145 0.127 Q 50.517 0.319 51.6 0.8 A 32.557 32.557 0 0 1 53.733 1.839 A 27.241 27.241 0 0 1 54.9 2.5 A 18.279 18.279 0 0 0 56.533 3.375 A 14.31 14.31 0 0 0 57.8 3.9 A 4.845 4.845 0 0 0 59.187 4.17 Q 59.772 4.201 60.411 4.108 A 7.942 7.942 0 0 0 61 4 Q 62.4 3.6 63.8 3.1 A 8.364 8.364 0 0 1 66.25 2.608 A 7.847 7.847 0 0 1 66.6 2.6 A 10.924 10.924 0 0 1 70.045 3.119 A 8.933 8.933 0 0 1 74.2 6 Q 77 9.4 77 14 Q 77 20 75.3 25.8 A 42.903 42.903 0 0 0 73.607 37.202 A 47.773 47.773 0 0 0 73.6 38 A 48.163 48.163 0 0 0 73.897 43.504 Q 74.216 46.271 74.877 48.639 A 25.968 25.968 0 0 0 75.4 50.3 A 68.547 68.547 0 0 0 77.488 55.549 A 53.119 53.119 0 0 0 79.4 59.4 Q 81.6 63.4 83.4 66.8 Q 85.2 70.2 85.2 74.2 A 13.914 13.914 0 0 1 84.148 79.68 A 13.141 13.141 0 0 1 80.7 84.4 Q 76.2 88.4 70 88.4 A 17.184 17.184 0 0 1 65.43 87.824 A 12.657 12.657 0 0 1 59.5 84.3 Q 55.6 80.2 53.8 74.1 A 44.32 44.32 0 0 1 52.142 64.815 A 52.867 52.867 0 0 1 52 60.9 A 73.794 73.794 0 0 1 52.38 53.261 A 59.012 59.012 0 0 1 53.2 47.8 Q 51.209 50.556 48.105 55.013 Z M 31.4 57.6 A 161.668 161.668 0 0 0 35.799 52.097 Q 39.603 47.103 41.9 43.1 A 71.156 71.156 0 0 0 43.469 40.225 Q 45.55 36.175 46 33.7 A 11.028 11.028 0 0 0 46.095 33.08 Q 46.31 31.341 45.77 30.488 A 1.649 1.649 0 0 0 44.9 29.8 Q 43.464 29.293 40.957 30.999 A 18.097 18.097 0 0 0 40 31.7 A 22.625 22.625 0 0 0 37.912 33.575 Q 35.519 35.981 32.7 39.9 Q 29.561 44.264 26.363 50.563 A 135.543 135.543 0 0 0 24.4 54.6 A 89.293 89.293 0 0 0 23.231 57.219 Q 21.675 60.875 21.3 62.9 A 10.756 10.756 0 0 0 21.222 63.375 Q 21.035 64.72 21.352 65.324 A 0.859 0.859 0 0 0 22 65.8 A 1.323 1.323 0 0 0 22.218 65.818 Q 23.409 65.818 25.6 63.9 Q 27.768 62.003 30.752 58.393 A 100.944 100.944 0 0 0 31.4 57.6 Z" vector-effect="non-scaling-stroke"/></g></svg>