<svg width="409.201" height="153.004" viewBox="0 0 409.201 153.004" xmlns="http://www.w3.org/2000/svg"><g id="svgGroup" stroke-linecap="round" fill-rule="evenodd" font-size="9pt" stroke="#000" stroke-width="0.25mm" fill="none" style="stroke:#000;stroke-width:0.25mm;fill:none"><path d="M 108.6 73.603 L 107.8 73.203 A 20.99 20.99 0 0 0 106.813 74.272 Q 105.2 76.128 102.8 79.503 A 255.523 255.523 0 0 0 97.957 86.572 A 294.511 294.511 0 0 0 96.3 89.103 Q 93 94.203 90.2 98.803 Q 88.089 102.271 87.115 104.375 A 15.908 15.908 0 0 0 86.6 105.603 A 21.846 21.846 0 0 1 83.701 111.273 A 19.283 19.283 0 0 1 81.1 114.203 A 12.496 12.496 0 0 1 75.333 117.164 A 18.39 18.39 0 0 1 71.2 117.603 A 11.961 11.961 0 0 1 65.079 115.889 A 15.515 15.515 0 0 1 63.6 114.903 A 29.159 29.159 0 0 1 59.729 111.385 A 38.964 38.964 0 0 1 56.8 107.803 A 85.703 85.703 0 0 1 52.355 101.014 A 100.387 100.387 0 0 1 50.7 98.103 Q 47.8 92.803 45.1 87.603 Q 42.4 82.403 40 77.903 Q 37.6 73.403 35.4 70.803 Q 34.663 73.75 33.587 80.259 A 378.659 378.659 0 0 0 33.4 81.403 Q 32.2 88.803 30.7 97.903 Q 29.2 107.003 27.1 116.803 Q 25 126.603 22.3 134.603 A 82.394 82.394 0 0 1 20.191 140.21 Q 18.363 144.553 16.3 147.803 A 16.603 16.603 0 0 1 14.483 150.199 Q 11.884 153.003 8.8 153.003 A 8.779 8.779 0 0 1 5.863 152.535 A 7.331 7.331 0 0 1 2.3 149.803 Q 0 146.603 0 143.003 Q 0 138.603 0.5 134.203 Q 1 129.803 1.8 125.403 Q 5 100.603 7.5 75.803 Q 10 51.003 13.4 26.003 Q 14.4 20.803 17.8 17.003 A 11.079 11.079 0 0 1 23.945 13.543 A 16.673 16.673 0 0 1 27.4 13.203 Q 37.4 13.203 41.4 22.203 Q 42.2 24.203 42.6 26.303 Q 43 28.403 43.4 30.603 Q 46.8 46.403 53.3 60.603 Q 59.8 74.803 68.4 88.603 A 174.503 174.503 0 0 0 69.775 86.622 Q 71.855 83.586 75.195 78.525 A 1235.56 1235.56 0 0 0 76 77.303 Q 81.2 69.403 87.9 59.603 A 1077.951 1077.951 0 0 1 98.456 44.453 A 1239.722 1239.722 0 0 1 102.2 39.203 A 384.449 384.449 0 0 1 111.084 27.286 A 309.461 309.461 0 0 1 117 19.903 A 158.765 158.765 0 0 1 122.933 13.115 Q 126.9 8.841 130.6 5.603 A 40.995 40.995 0 0 1 133.661 3.155 Q 136.79 0.908 139.289 0.263 A 7.655 7.655 0 0 1 141.2 0.003 Q 147.6 0.003 152.1 4.203 A 14.585 14.585 0 0 1 155.254 8.338 A 12.937 12.937 0 0 1 156.6 14.203 A 59.416 59.416 0 0 1 155.528 25.283 A 66.633 66.633 0 0 1 155.2 26.903 Q 153.8 33.403 151.9 40.103 Q 150 46.803 148.1 53.303 A 106.977 106.977 0 0 0 145.607 63.668 A 95.706 95.706 0 0 0 145.2 66.003 A 413.707 413.707 0 0 0 143.081 82.71 A 461.809 461.809 0 0 0 142.5 88.503 A 245.613 245.613 0 0 0 141.417 108.443 A 222.648 222.648 0 0 0 141.4 111.203 Q 141.4 117.803 142.9 120.403 A 19.375 19.375 0 0 0 144.102 122.252 Q 144.764 123.145 145.46 123.827 A 9.986 9.986 0 0 0 146.1 124.403 Q 147.8 125.803 149.3 127.303 A 3.844 3.844 0 0 1 150.091 128.524 Q 150.8 130.178 150.8 133.203 Q 150.8 139.003 146.2 141.903 Q 141.6 144.803 136 144.803 A 22.542 22.542 0 0 1 130.251 144.105 A 17.106 17.106 0 0 1 123.7 140.803 A 28.216 28.216 0 0 1 117.643 133.852 A 35.264 35.264 0 0 1 115.7 130.303 A 52.843 52.843 0 0 1 112.241 120.657 A 63.837 63.837 0 0 1 111.2 115.803 Q 109.8 107.803 109.2 99.903 Q 108.6 92.003 108.6 85.003 L 108.6 73.603 Z M 363.4 104.203 Q 367.8 104.203 371.2 101.603 A 25.008 25.008 0 0 0 375.806 96.973 A 29.968 29.968 0 0 0 377.2 95.003 A 74.692 74.692 0 0 0 381.444 87.544 A 82.786 82.786 0 0 0 382 86.403 Q 384.2 81.803 386.4 77.803 A 38.018 38.018 0 0 1 388.382 74.571 Q 389.509 72.934 390.706 71.624 A 22.517 22.517 0 0 1 391.1 71.203 A 9.157 9.157 0 0 1 393.225 69.532 A 7.213 7.213 0 0 1 396.8 68.603 A 9.458 9.458 0 0 1 399.539 68.987 A 8.065 8.065 0 0 1 401.7 70.003 A 13.192 13.192 0 0 1 405.253 73.535 A 14.949 14.949 0 0 1 405.3 73.603 Q 406.8 75.803 407.5 78.503 Q 408.2 81.203 408.2 83.803 A 37.841 37.841 0 0 1 405.973 96.418 A 45.903 45.903 0 0 1 404.4 100.303 Q 400.6 108.603 394.4 115.303 Q 388.2 122.003 380.2 126.203 A 36.203 36.203 0 0 1 369.076 129.983 A 33.213 33.213 0 0 1 363.8 130.403 A 31.882 31.882 0 0 1 353.925 128.918 A 28.061 28.061 0 0 1 347.2 125.703 Q 340 121.003 335.1 113.803 Q 330.2 106.603 327.7 97.803 A 65.81 65.81 0 0 1 325.496 86.516 A 56.107 56.107 0 0 1 325.2 80.803 Q 325.2 70.341 328.579 57.908 A 122.289 122.289 0 0 1 328.8 57.103 Q 332.4 44.203 339.3 32.903 A 69.291 69.291 0 0 1 353.672 15.961 A 65.367 65.367 0 0 1 356.1 14.003 Q 366 6.403 378.8 6.403 Q 385 6.403 390.5 8.703 Q 396 11.003 400.2 15.103 Q 404.4 19.203 406.8 24.603 Q 409.2 30.003 409.2 36.203 A 22.878 22.878 0 0 1 409.068 38.585 Q 408.939 39.821 408.682 41.183 A 38.812 38.812 0 0 1 408.6 41.603 Q 408 44.603 406.6 47.303 A 16.97 16.97 0 0 1 404.726 50.192 A 14.167 14.167 0 0 1 403.2 51.803 Q 401.2 53.603 398.4 53.603 A 11.248 11.248 0 0 1 396.234 53.411 Q 393.413 52.856 392.3 50.703 A 32.843 32.843 0 0 1 390.474 46.432 A 38.819 38.819 0 0 1 389.8 44.303 A 25.493 25.493 0 0 0 387.464 38.684 A 23.526 23.526 0 0 0 387 37.903 Q 385.511 35.505 381.833 35.09 A 14.597 14.597 0 0 0 380.2 35.003 A 14.312 14.312 0 0 0 372.371 37.387 A 20.965 20.965 0 0 0 369 40.103 A 43.545 43.545 0 0 0 363.283 47.076 A 56.64 56.64 0 0 0 359.9 52.903 A 76.535 76.535 0 0 0 354.377 67.374 A 86.101 86.101 0 0 0 353.8 69.603 Q 351.6 78.603 351.7 86.303 A 36.044 36.044 0 0 0 352.155 91.713 Q 352.85 95.916 354.6 99.103 Q 357.077 103.615 362.057 104.136 A 12.909 12.909 0 0 0 363.4 104.203 Z M 207.705 91.416 A 1204.252 1204.252 0 0 0 205.7 94.303 Q 201.2 100.803 195.8 107.103 A 96.332 96.332 0 0 1 188.583 114.683 A 81.01 81.01 0 0 1 184.7 118.103 Q 180.965 121.183 177.53 122.245 A 11.92 11.92 0 0 1 174 122.803 Q 170.116 122.803 167.429 121.264 A 9.836 9.836 0 0 1 167 121.003 Q 164.2 119.203 162.6 116.303 A 21.242 21.242 0 0 1 160.706 111.56 A 25.132 25.132 0 0 1 160.3 109.803 Q 159.6 106.203 159.6 102.603 Q 159.6 98.731 160.739 93.72 A 68.991 68.991 0 0 1 161.5 90.703 A 85.889 85.889 0 0 1 164.799 81.083 A 102.737 102.737 0 0 1 166.8 76.503 Q 170.2 69.203 174.7 62.003 Q 179.2 54.803 184.4 49.103 A 56.115 56.115 0 0 1 190.408 43.387 A 45.29 45.29 0 0 1 195.3 39.903 A 24.816 24.816 0 0 1 200.845 37.334 A 19.78 19.78 0 0 1 206.8 36.403 A 14.072 14.072 0 0 1 208.745 36.53 Q 210.117 36.722 211.2 37.203 A 32.557 32.557 0 0 1 213.333 38.243 A 27.241 27.241 0 0 1 214.5 38.903 A 18.279 18.279 0 0 0 216.133 39.779 A 14.31 14.31 0 0 0 217.4 40.303 A 4.845 4.845 0 0 0 218.787 40.574 Q 219.372 40.604 220.011 40.512 A 7.942 7.942 0 0 0 220.6 40.403 Q 222 40.003 223.4 39.503 A 8.364 8.364 0 0 1 225.85 39.011 A 7.847 7.847 0 0 1 226.2 39.003 A 10.924 10.924 0 0 1 229.645 39.522 A 8.933 8.933 0 0 1 233.8 42.403 Q 236.6 45.803 236.6 50.403 Q 236.6 56.403 234.9 62.203 A 42.903 42.903 0 0 0 233.207 73.606 A 47.773 47.773 0 0 0 233.2 74.403 A 48.163 48.163 0 0 0 233.497 79.907 Q 233.816 82.674 234.477 85.043 A 25.968 25.968 0 0 0 235 86.703 A 68.547 68.547 0 0 0 237.088 91.953 A 53.119 53.119 0 0 0 239 95.803 Q 241.2 99.803 243 103.203 Q 244.8 106.603 244.8 110.603 A 13.914 13.914 0 0 1 243.748 116.084 A 13.141 13.141 0 0 1 240.3 120.803 Q 235.8 124.803 229.6 124.803 A 17.184 17.184 0 0 1 225.03 124.227 A 12.657 12.657 0 0 1 219.1 120.703 Q 215.2 116.603 213.4 110.503 A 44.32 44.32 0 0 1 211.742 101.218 A 52.867 52.867 0 0 1 211.6 97.303 A 73.794 73.794 0 0 1 211.98 89.664 A 59.012 59.012 0 0 1 212.8 84.203 Q 210.809 86.96 207.705 91.416 Z M 280.6 46.003 Q 286.2 43.203 292.7 39.903 A 32.132 32.132 0 0 1 298.926 37.481 A 24.951 24.951 0 0 1 305.4 36.603 A 14.21 14.21 0 0 1 308.984 37.027 A 9.134 9.134 0 0 1 314.8 41.403 Q 317.6 46.203 317.6 51.603 A 21.964 21.964 0 0 1 317.089 56.507 Q 315.878 61.791 311.8 64.603 A 22.555 22.555 0 0 1 301.658 68.38 A 29.165 29.165 0 0 1 298 68.603 A 30.586 30.586 0 0 0 293.359 68.929 Q 287.272 69.867 284.6 73.503 A 15.81 15.81 0 0 0 282.371 77.973 Q 281 82.155 281 88.203 A 20.19 20.19 0 0 0 281.613 93.224 A 18.696 18.696 0 0 0 281.8 93.903 Q 282.6 96.603 283.6 99.303 Q 284.6 102.003 285.4 104.803 Q 286.2 107.603 286.2 110.403 A 12.357 12.357 0 0 1 285.737 113.887 A 8.942 8.942 0 0 1 281.9 119.003 Q 277.6 121.803 272.4 121.803 A 12.61 12.61 0 0 1 267.879 121.013 A 11.538 11.538 0 0 1 264.5 119.003 A 22.108 22.108 0 0 1 260.517 114.519 A 27.66 27.66 0 0 1 258.9 111.803 Q 256.6 107.403 255.3 101.803 Q 254 96.203 253.2 90.603 Q 252.4 85.003 252.2 80.003 Q 252.001 75.018 252 71.623 A 125.255 125.255 0 0 1 252 71.603 Q 252 67.803 252.8 61.103 Q 253.6 54.403 255.5 48.003 A 41.01 41.01 0 0 1 258.285 40.968 A 33.999 33.999 0 0 1 260.8 36.803 A 12.511 12.511 0 0 1 263.502 33.973 A 9.918 9.918 0 0 1 269.6 32.003 Q 273.497 32.003 275.86 33.503 A 7.061 7.061 0 0 1 278.4 36.303 A 20.129 20.129 0 0 1 280.479 43.533 A 24.757 24.757 0 0 1 280.6 46.003 Z M 191 94.003 A 161.668 161.668 0 0 0 195.399 88.5 Q 199.203 83.507 201.5 79.503 A 71.156 71.156 0 0 0 203.069 76.628 Q 205.15 72.578 205.6 70.103 A 11.028 11.028 0 0 0 205.695 69.484 Q 205.91 67.744 205.37 66.891 A 1.649 1.649 0 0 0 204.5 66.203 Q 203.064 65.697 200.557 67.402 A 18.097 18.097 0 0 0 199.6 68.103 A 22.625 22.625 0 0 0 197.512 69.978 Q 195.119 72.385 192.3 76.303 Q 189.161 80.668 185.963 86.966 A 135.543 135.543 0 0 0 184 91.003 A 89.293 89.293 0 0 0 182.831 93.622 Q 181.275 97.278 180.9 99.303 A 10.756 10.756 0 0 0 180.822 99.779 Q 180.635 101.124 180.952 101.727 A 0.859 0.859 0 0 0 181.6 102.203 A 1.323 1.323 0 0 0 181.818 102.221 Q 183.009 102.221 185.2 100.303 Q 187.368 98.407 190.352 94.796 A 100.944 100.944 0 0 0 191 94.003 Z" vector-effect="non-scaling-stroke"/></g></svg>