<svg width="65.601" height="89.802" viewBox="0 0 65.601 89.802" xmlns="http://www.w3.org/2000/svg"><g id="svgGroup" stroke-linecap="round" fill-rule="evenodd" font-size="9pt" stroke="#000" stroke-width="0.25mm" fill="none" style="stroke:#000;stroke-width:0.25mm;fill:none"><path d="M 28.6 14.001 Q 34.2 11.201 40.7 7.901 A 32.132 32.132 0 0 1 46.926 5.479 A 24.951 24.951 0 0 1 53.4 4.601 A 14.21 14.21 0 0 1 56.984 5.024 A 9.134 9.134 0 0 1 62.8 9.401 Q 65.6 14.201 65.6 19.601 A 21.964 21.964 0 0 1 65.089 24.504 Q 63.878 29.789 59.8 32.601 A 22.555 22.555 0 0 1 49.658 36.378 A 29.165 29.165 0 0 1 46 36.601 A 30.586 30.586 0 0 0 41.359 36.927 Q 35.272 37.865 32.6 41.501 A 15.81 15.81 0 0 0 30.371 45.971 Q 29 50.153 29 56.201 A 20.19 20.19 0 0 0 29.613 61.222 A 18.696 18.696 0 0 0 29.8 61.901 Q 30.6 64.601 31.6 67.301 Q 32.6 70.001 33.4 72.801 Q 34.2 75.601 34.2 78.401 A 12.357 12.357 0 0 1 33.737 81.885 A 8.942 8.942 0 0 1 29.9 87.001 Q 25.6 89.801 20.4 89.801 A 12.61 12.61 0 0 1 15.879 89.011 A 11.538 11.538 0 0 1 12.5 87.001 A 22.108 22.108 0 0 1 8.517 82.517 A 27.66 27.66 0 0 1 6.9 79.801 Q 4.6 75.401 3.3 69.801 Q 2 64.201 1.2 58.601 Q 0.4 53.001 0.2 48.001 Q 0.001 43.016 0 39.621 A 125.255 125.255 0 0 1 0 39.601 Q 0 35.801 0.8 29.101 Q 1.6 22.401 3.5 16.001 A 41.01 41.01 0 0 1 6.285 8.965 A 33.999 33.999 0 0 1 8.8 4.801 A 12.511 12.511 0 0 1 11.502 1.971 A 9.918 9.918 0 0 1 17.6 0.001 Q 21.497 0.001 23.86 1.501 A 7.061 7.061 0 0 1 26.4 4.301 A 20.129 20.129 0 0 1 28.479 11.531 A 24.757 24.757 0 0 1 28.6 14.001 Z" vector-effect="non-scaling-stroke"/></g></svg>